<?xml version="1.0" encoding="UTF-8"?>
<svg width="512" height="512" viewBox="0 0 512 512" fill="none" xmlns="http://www.w3.org/2000/svg">
  <rect width="512" height="512" rx="128" fill="#3B82F6"/>
  <path d="M256 128C185.3 128 128 185.3 128 256C128 326.7 185.3 384 256 384C326.7 384 384 326.7 384 256C384 185.3 326.7 128 256 128ZM256 352C202.1 352 160 309.9 160 256C160 202.1 202.1 160 256 160C309.9 160 352 202.1 352 256C352 309.9 309.9 352 256 352ZM288 224H224V192H288V224ZM288 320H224V256H288V320Z" fill="white"/>
</svg>
